<svg width="210" height="204" viewBox="0 0 210 204" fill="none" xmlns="http://www.w3.org/2000/svg">
<g clip-path="url(#clip0)">
<rect width="210" height="204" rx="10" fill="#FF1717"/>
<rect width="210" height="204" rx="10" fill="url(#paint0_linear)"/>
<path d="M56.7069 25.5315C55.4448 18.7414 48.7145 14.4249 42.0168 16.11C35.1395 17.8404 31.2657 25.1365 33.6849 31.8027L48.3598 72.2395C49.8502 76.3463 54.2319 78.6332 58.4533 77.5075C62.7082 76.3729 65.3722 72.1539 64.5676 67.8245L56.7069 25.5315Z" fill="#FE9214"/>
<circle r="7.5" transform="matrix(-1 0 0 1 62.4936 87.9968)" fill="#FE9214"/>
<path d="M23.0032 37.1988C19.8118 31.0739 12.1138 28.9128 6.201 32.4818C0.129663 36.1464 -1.44273 44.2562 2.81908 49.9243L28.6709 84.307C31.2965 87.7989 36.1552 88.7055 39.8633 86.3952C43.6008 84.0666 44.9156 79.2532 42.8808 75.348L23.0032 37.1988Z" fill="#FE9214"/>
<circle r="7.5" transform="matrix(-0.956342 0.29225 0.29225 0.956342 46.7927 95.2458)" fill="#FE9214"/>
<path d="M151.287 20.5315C152.549 13.7414 159.279 9.42488 165.977 11.11C172.854 12.8404 176.728 20.1365 174.309 26.8027L159.634 67.2395C158.143 71.3463 153.762 73.6332 149.54 72.5075C145.285 71.3729 142.621 67.1539 143.426 62.8245L151.287 20.5315Z" fill="#FE9214"/>
<circle cx="145.5" cy="82.9968" r="7.5" fill="#FE9214"/>
<path d="M184.99 32.1988C188.182 26.0739 195.88 23.9128 201.793 27.4818C207.864 31.1464 209.436 39.2562 205.174 44.9243L179.323 79.307C176.697 82.7989 171.838 83.7055 168.13 81.3952C164.393 79.0666 163.078 74.2532 165.113 70.348L184.99 32.1988Z" fill="#FE9214"/>
<circle cx="161.201" cy="90.2458" r="7.5" transform="rotate(16.9927 161.201 90.2458)" fill="#FE9214"/>
<ellipse cx="105.5" cy="107" rx="57.5" ry="60" fill="#FFC700"/>
<ellipse cx="122.75" cy="97" rx="13.4167" ry="14" fill="black"/>
<ellipse cx="69.5625" cy="100.5" rx="10.0625" ry="10.5" fill="black"/>
<path d="M121.651 148.52C107.242 143.355 88.9033 147.983 82.3254 151.186C75.6171 159.139 72.3946 151.186 72.3946 151.186C63.1928 131.52 84.6985 113.165 100.055 113.342C115.411 113.52 129.318 126.52 133.151 143.02C133.151 143.02 136.06 153.686 121.651 148.52Z" fill="black"/>
<path d="M55.6667 84.729C67.194 84.9524 72.7074 82.7331 81.0098 75" stroke="black" stroke-width="4"/>
<path d="M142.023 80.6911C132.789 81.2282 128.672 79.2382 123.038 72" stroke="black" stroke-width="4"/>
<path d="M109.812 105C113.646 117.5 135.208 113.5 137.125 105.5" stroke="black" stroke-width="0.75"/>
<path d="M59.5 109.5C67.6458 117.5 78.595 113.163 80.1042 106.5" stroke="black" stroke-width="0.75"/>
<path d="M158.925 105.887C159.291 109.179 156.843 112.179 153.458 112.588C150.073 112.998 147.033 110.661 146.667 107.369C146.302 104.078 147.536 90.1506 150.921 89.7412C154.306 89.3319 158.56 102.595 158.925 105.887Z" fill="#007DA5"/>
<path d="M158.811 104.849C159.152 107.921 156.931 110.714 153.849 111.087C150.767 111.459 147.993 109.271 147.652 106.199C147.31 103.127 148.399 90.1355 151.481 89.7628C154.562 89.3901 158.47 101.777 158.811 104.849Z" fill="#09A0CF"/>
<ellipse cx="154.155" cy="106.128" rx="3.83333" ry="4" fill="#C3EBFC"/>
</g>
<defs>
<linearGradient id="paint0_linear" x1="105" y1="0" x2="105" y2="204" gradientUnits="userSpaceOnUse">
<stop stop-opacity="0"/>
<stop offset="1"/>
</linearGradient>
<clipPath id="clip0">
<rect width="210" height="204" rx="10" fill="white"/>
</clipPath>
</defs>
</svg>
